<svg width="18" height="18" viewBox="0 0 18 18" fill="none" xmlns="http://www.w3.org/2000/svg">
<path fill-rule="evenodd" clip-rule="evenodd" d="M8.99999 17.3333C13.6024 17.3333 17.3333 13.6024 17.3333 9.00001C17.3333 4.39763 13.6024 0.666672 8.99999 0.666672C4.39762 0.666672 0.666656 4.39763 0.666656 9.00001C0.666656 13.6024 4.39762 17.3333 8.99999 17.3333ZM9.83332 5.66667C9.83332 5.20643 9.46023 4.83334 8.99999 4.83334C8.53975 4.83334 8.16666 5.20643 8.16666 5.66667V9.00001C8.16666 9.46024 8.53975 9.83334 8.99999 9.83334C9.46023 9.83334 9.83332 9.46024 9.83332 9.00001V5.66667ZM8.99999 11.5C8.53975 11.5 8.16666 11.8731 8.16666 12.3333C8.16666 12.7936 8.53975 13.1667 8.99999 13.1667H9.00832C9.46856 13.1667 9.84166 12.7936 9.84166 12.3333C9.84166 11.8731 9.46856 11.5 9.00832 11.5H8.99999Z" fill="#D92C20"/>
</svg>
