<svg width="24" height="24" viewBox="0 0 24 24" fill="none" xmlns="http://www.w3.org/2000/svg">
<path d="M21.354 16.487C20.016 15.981 19.121 14.766 19.02 13.317C18.921 11.905 19.613 10.651 20.871 9.96201L21.917 9.38901L21.17 8.45901C19.915 6.89601 18.119 5.96201 16.366 5.96201C15.151 5.96201 14.308 6.28001 13.631 6.53601C13.153 6.71701 12.776 6.85901 12.362 6.85901C11.89 6.85901 11.424 6.69301 10.884 6.50101C10.176 6.24901 9.374 5.96301 8.344 5.96301C6.354 5.96301 4.347 7.15101 3.107 9.06101C1.256 11.91 1.764 16.795 4.315 20.677C5.326 22.215 6.743 23.982 8.75 24C8.763 24 8.776 24 8.789 24C10.432 24 10.792 23.124 12.387 23.114C14.129 23.196 14.349 24.007 15.976 23.996C17.937 23.978 19.351 22.225 20.475 20.512C21.139 19.505 21.396 18.978 21.913 17.834L22.351 16.864L21.354 16.487Z" fill="#94A3B8"/>
<path d="M15.1 3.44999C15.75 2.61599 16.243 1.43899 16.064 0.235992C15.002 0.308992 13.762 0.983992 13.037 1.86399C12.379 2.66299 11.836 3.84699 12.047 4.99899C13.205 5.03499 14.404 4.34299 15.1 3.44999Z" fill="#94A3B8"/>
</svg>
