<svg width="16" height="16" viewBox="0 0 16 16" fill="none" xmlns="http://www.w3.org/2000/svg">
<path fill-rule="evenodd" clip-rule="evenodd" d="M15.3334 7.99996C15.3334 12.05 12.0502 15.3333 8.00008 15.3333C3.94999 15.3333 0.666748 12.05 0.666748 7.99996C0.666748 3.94987 3.94999 0.666626 8.00008 0.666626C12.0502 0.666626 15.3334 3.94987 15.3334 7.99996ZM10.4715 6.47136C10.7318 6.21101 10.7318 5.7889 10.4715 5.52855C10.2111 5.26821 9.78903 5.26821 9.52868 5.52855L8.00008 7.05715L6.47149 5.52856C6.21114 5.26821 5.78903 5.26821 5.52868 5.52856C5.26833 5.78891 5.26833 6.21102 5.52868 6.47137L7.05727 7.99996L5.52868 9.52855C5.26833 9.7889 5.26833 10.211 5.52868 10.4714C5.78903 10.7317 6.21114 10.7317 6.47149 10.4714L8.00008 8.94277L9.52868 10.4714C9.78903 10.7317 10.2111 10.7317 10.4715 10.4714C10.7318 10.211 10.7318 9.7889 10.4715 9.52855L8.94289 7.99996L10.4715 6.47136Z" fill="#7D89AF"/>
</svg>
