<svg width="16" height="17" viewBox="0 0 16 17" fill="none" xmlns="http://www.w3.org/2000/svg">
<path fill-rule="evenodd" clip-rule="evenodd" d="M10.1094 4.55499C10.3194 4.55787 10.53 4.56076 10.7413 4.56292C13.0115 4.56292 14.6667 6.18142 14.6667 8.41649V11.2874C14.6667 13.5225 13.0115 15.141 10.7413 15.141C9.8319 15.1602 8.92251 15.1666 8.00658 15.1666C7.09065 15.1666 6.16818 15.1602 5.25879 15.141C2.98859 15.141 1.33337 13.5225 1.33337 11.2874V8.41649C1.33337 6.18142 2.98859 4.56292 5.26533 4.56292C6.12238 4.55008 6.99906 4.53723 7.88882 4.53723V4.42805C7.88882 3.98489 7.51591 3.62522 7.07103 3.62522H6.42333C5.68404 3.62522 5.08215 3.03434 5.08215 2.31501C5.08215 2.05168 5.30459 1.83331 5.57282 1.83331C5.8476 1.83331 6.0635 2.05168 6.0635 2.31501C6.0635 2.50769 6.22706 2.66183 6.42333 2.66183H7.07103C8.05892 2.66825 8.86363 3.45823 8.87018 4.42162V4.54365C9.2826 4.54365 9.69503 4.54931 10.1094 4.55499ZM7.23458 10.3304H6.54763V11.0112C6.54763 11.2745 6.32519 11.4929 6.05696 11.4929C5.78218 11.4929 5.56628 11.2745 5.56628 11.0112V10.3304H4.87279C4.60455 10.3304 4.38211 10.1185 4.38211 9.84873C4.38211 9.5854 4.60455 9.36703 4.87279 9.36703H5.56628V8.69266C5.56628 8.42933 5.78218 8.21096 6.05696 8.21096C6.32519 8.21096 6.54763 8.42933 6.54763 8.69266V9.36703H7.23458C7.50282 9.36703 7.72526 9.5854 7.72526 9.84873C7.72526 10.1185 7.50282 10.3304 7.23458 10.3304ZM10.0151 9.24501H10.0805C10.3487 9.24501 10.5712 9.03306 10.5712 8.76331C10.5712 8.49999 10.3487 8.28162 10.0805 8.28162H10.0151C9.74031 8.28162 9.52441 8.49999 9.52441 8.76331C9.52441 9.03306 9.74031 9.24501 10.0151 9.24501ZM11.1338 11.4544H11.1992C11.4675 11.4544 11.6899 11.2424 11.6899 10.9727C11.6899 10.7094 11.4675 10.491 11.1992 10.491H11.1338C10.8584 10.491 10.6431 10.7094 10.6431 10.9727C10.6431 11.2424 10.8584 11.4544 11.1338 11.4544Z" fill="#0F172A"/>
</svg>
