<svg width="16" height="17" viewBox="0 0 16 17" fill="none" xmlns="http://www.w3.org/2000/svg">
<g clip-path="url(#clip0_1_116)">
<path d="M12 0.5H4C3.46957 0.5 2.96086 0.710714 2.58579 1.08579C2.21071 1.46086 2 1.96957 2 2.5V14.5C2 15.0304 2.21071 15.5391 2.58579 15.9142C2.96086 16.2893 3.46957 16.5 4 16.5H12C12.5304 16.5 13.0391 16.2893 13.4142 15.9142C13.7893 15.5391 14 15.0304 14 14.5V2.5C14 1.96957 13.7893 1.46086 13.4142 1.08579C13.0391 0.710714 12.5304 0.5 12 0.5V0.5ZM12.6667 12.5C12.6667 12.6768 12.5964 12.8464 12.4714 12.9714C12.3464 13.0964 12.1768 13.1667 12 13.1667H4C3.82319 13.1667 3.65362 13.0964 3.5286 12.9714C3.40357 12.8464 3.33333 12.6768 3.33333 12.5V3.16667C3.33333 2.98986 3.40357 2.82029 3.5286 2.69526C3.65362 2.57024 3.82319 2.5 4 2.5H12C12.1768 2.5 12.3464 2.57024 12.4714 2.69526C12.5964 2.82029 12.6667 2.98986 12.6667 3.16667V12.5Z" fill="#0F172A"/>
</g>
<defs>
<clipPath id="clip0_1_116">
<rect width="16" height="16" fill="white" transform="translate(0 0.5)"/>
</clipPath>
</defs>
</svg>
