<svg width="18" height="18" viewBox="0 0 18 18" fill="none" xmlns="http://www.w3.org/2000/svg">
<path fill-rule="evenodd" clip-rule="evenodd" d="M9 17.3333C13.6024 17.3333 17.3333 13.6024 17.3333 8.99999C17.3333 4.39762 13.6024 0.666656 9 0.666656C4.39762 0.666656 0.666664 4.39762 0.666664 8.99999C0.666664 13.6024 4.39762 17.3333 9 17.3333ZM13.3393 7.08925C13.6647 6.76381 13.6647 6.23617 13.3393 5.91073C13.0138 5.5853 12.4862 5.5853 12.1607 5.91073L7.75 10.3215L5.83925 8.41073C5.51382 8.0853 4.98618 8.0853 4.66074 8.41073C4.33531 8.73617 4.33531 9.26381 4.66074 9.58925L7.16074 12.0892C7.48618 12.4147 8.01382 12.4147 8.33925 12.0892L13.3393 7.08925Z" fill="#027A48"/>
</svg>
